<mxfile host="app.diagrams.net" modified="2023-12-28T03:45:09.763Z" agent="Mozilla/5.0 (Windows NT 10.0; Win64; x64) AppleWebKit/537.36 (KHTML, like Gecko) Chrome/120.0.0.0 Safari/537.36" etag="sobifP6FlOPkB_gpc3DS" version="22.1.15" type="google">
  <diagram id="fPuGBL3NHj5Fupc2uFEM" name="Page-2">
    <mxGraphModel grid="0" page="1" gridSize="10" guides="1" tooltips="1" connect="1" arrows="1" fold="1" pageScale="1" pageWidth="850" pageHeight="1100" math="0" shadow="0">
      <root>
        <mxCell id="0" />
        <mxCell id="1" parent="0" />
        <mxCell id="s6OSc2W3i6KVsnKIQPC7-135" style="rounded=0;orthogonalLoop=1;jettySize=auto;html=1;exitX=0.5;exitY=0;exitDx=0;exitDy=0;entryX=0.5;entryY=1;entryDx=0;entryDy=0;endArrow=ERoneToMany;endFill=0;" edge="1" parent="1" source="s6OSc2W3i6KVsnKIQPC7-136" target="s6OSc2W3i6KVsnKIQPC7-145">
          <mxGeometry relative="1" as="geometry" />
        </mxCell>
        <mxCell id="s6OSc2W3i6KVsnKIQPC7-136" value="Date" style="swimlane;fontStyle=0;childLayout=stackLayout;horizontal=1;startSize=26;horizontalStack=0;resizeParent=1;resizeParentMax=0;resizeLast=0;collapsible=1;marginBottom=0;align=center;fontSize=14;" vertex="1" parent="1">
          <mxGeometry x="-567" y="1527" width="140" height="56" as="geometry" />
        </mxCell>
        <mxCell id="s6OSc2W3i6KVsnKIQPC7-137" value="&lt;u&gt;Date&lt;/u&gt;" style="text;strokeColor=none;fillColor=none;spacingLeft=4;spacingRight=4;overflow=hidden;rotatable=0;points=[[0,0.5],[1,0.5]];portConstraint=eastwest;fontSize=12;whiteSpace=wrap;html=1;" vertex="1" parent="s6OSc2W3i6KVsnKIQPC7-136">
          <mxGeometry y="26" width="140" height="30" as="geometry" />
        </mxCell>
        <mxCell id="s6OSc2W3i6KVsnKIQPC7-138" value="Month" style="swimlane;fontStyle=0;childLayout=stackLayout;horizontal=1;startSize=26;horizontalStack=0;resizeParent=1;resizeParentMax=0;resizeLast=0;collapsible=1;marginBottom=0;align=center;fontSize=14;" vertex="1" parent="1">
          <mxGeometry x="-567" y="1634" width="140" height="56" as="geometry" />
        </mxCell>
        <mxCell id="s6OSc2W3i6KVsnKIQPC7-139" value="&lt;u&gt;Month&lt;/u&gt;" style="text;strokeColor=none;fillColor=none;spacingLeft=4;spacingRight=4;overflow=hidden;rotatable=0;points=[[0,0.5],[1,0.5]];portConstraint=eastwest;fontSize=12;whiteSpace=wrap;html=1;" vertex="1" parent="s6OSc2W3i6KVsnKIQPC7-138">
          <mxGeometry y="26" width="140" height="30" as="geometry" />
        </mxCell>
        <mxCell id="s6OSc2W3i6KVsnKIQPC7-140" style="rounded=0;orthogonalLoop=1;jettySize=auto;html=1;exitX=0.5;exitY=0;exitDx=0;exitDy=0;entryX=0.5;entryY=1;entryDx=0;entryDy=0;endArrow=ERoneToMany;endFill=0;" edge="1" parent="1" source="s6OSc2W3i6KVsnKIQPC7-141" target="s6OSc2W3i6KVsnKIQPC7-138">
          <mxGeometry relative="1" as="geometry" />
        </mxCell>
        <mxCell id="s6OSc2W3i6KVsnKIQPC7-141" value="Quarter" style="swimlane;fontStyle=0;childLayout=stackLayout;horizontal=1;startSize=26;horizontalStack=0;resizeParent=1;resizeParentMax=0;resizeLast=0;collapsible=1;marginBottom=0;align=center;fontSize=14;" vertex="1" parent="1">
          <mxGeometry x="-567" y="1739" width="140" height="56" as="geometry" />
        </mxCell>
        <mxCell id="s6OSc2W3i6KVsnKIQPC7-142" value="&lt;u&gt;Quarter&lt;/u&gt;" style="text;strokeColor=none;fillColor=none;spacingLeft=4;spacingRight=4;overflow=hidden;rotatable=0;points=[[0,0.5],[1,0.5]];portConstraint=eastwest;fontSize=12;whiteSpace=wrap;html=1;" vertex="1" parent="s6OSc2W3i6KVsnKIQPC7-141">
          <mxGeometry y="26" width="140" height="30" as="geometry" />
        </mxCell>
        <mxCell id="s6OSc2W3i6KVsnKIQPC7-143" value="Year" style="swimlane;fontStyle=0;childLayout=stackLayout;horizontal=1;startSize=26;horizontalStack=0;resizeParent=1;resizeParentMax=0;resizeLast=0;collapsible=1;marginBottom=0;align=center;fontSize=14;" vertex="1" parent="1">
          <mxGeometry x="-567" y="1851" width="140" height="56" as="geometry" />
        </mxCell>
        <mxCell id="s6OSc2W3i6KVsnKIQPC7-144" value="&lt;u&gt;Year&lt;/u&gt;" style="text;strokeColor=none;fillColor=none;spacingLeft=4;spacingRight=4;overflow=hidden;rotatable=0;points=[[0,0.5],[1,0.5]];portConstraint=eastwest;fontSize=12;whiteSpace=wrap;html=1;" vertex="1" parent="s6OSc2W3i6KVsnKIQPC7-143">
          <mxGeometry y="26" width="140" height="30" as="geometry" />
        </mxCell>
        <mxCell id="s6OSc2W3i6KVsnKIQPC7-145" value="Calendar" style="rounded=1;whiteSpace=wrap;html=1;fillColor=#FFE599;" vertex="1" parent="1">
          <mxGeometry x="-545" y="1452" width="96" height="27" as="geometry" />
        </mxCell>
        <mxCell id="s6OSc2W3i6KVsnKIQPC7-146" style="rounded=0;orthogonalLoop=1;jettySize=auto;html=1;exitX=0.5;exitY=0;exitDx=0;exitDy=0;entryX=0.5;entryY=1;entryDx=0;entryDy=0;entryPerimeter=0;endArrow=ERoneToMany;endFill=0;" edge="1" parent="1" source="s6OSc2W3i6KVsnKIQPC7-143" target="s6OSc2W3i6KVsnKIQPC7-142">
          <mxGeometry relative="1" as="geometry" />
        </mxCell>
        <mxCell id="s6OSc2W3i6KVsnKIQPC7-147" style="rounded=0;orthogonalLoop=1;jettySize=auto;html=1;exitX=0.5;exitY=0;exitDx=0;exitDy=0;entryX=0.496;entryY=0.999;entryDx=0;entryDy=0;entryPerimeter=0;endArrow=ERoneToMany;endFill=0;" edge="1" parent="1" source="s6OSc2W3i6KVsnKIQPC7-138" target="s6OSc2W3i6KVsnKIQPC7-137">
          <mxGeometry relative="1" as="geometry" />
        </mxCell>
        <mxCell id="s6OSc2W3i6KVsnKIQPC7-148" style="rounded=0;orthogonalLoop=1;jettySize=auto;html=1;exitX=0.5;exitY=0;exitDx=0;exitDy=0;entryX=0.5;entryY=1;entryDx=0;entryDy=0;endArrow=ERoneToMany;endFill=0;" edge="1" parent="1" source="s6OSc2W3i6KVsnKIQPC7-149" target="s6OSc2W3i6KVsnKIQPC7-154">
          <mxGeometry relative="1" as="geometry" />
        </mxCell>
        <mxCell id="s6OSc2W3i6KVsnKIQPC7-149" value="City" style="swimlane;fontStyle=0;childLayout=stackLayout;horizontal=1;startSize=26;horizontalStack=0;resizeParent=1;resizeParentMax=0;resizeLast=0;collapsible=1;marginBottom=0;align=center;fontSize=14;" vertex="1" parent="1">
          <mxGeometry x="-215" y="1879" width="138" height="56" as="geometry" />
        </mxCell>
        <mxCell id="s6OSc2W3i6KVsnKIQPC7-150" value="&lt;u&gt;City&lt;/u&gt;" style="text;strokeColor=none;fillColor=none;spacingLeft=4;spacingRight=4;overflow=hidden;rotatable=0;points=[[0,0.5],[1,0.5]];portConstraint=eastwest;fontSize=12;whiteSpace=wrap;html=1;" vertex="1" parent="s6OSc2W3i6KVsnKIQPC7-149">
          <mxGeometry y="26" width="138" height="30" as="geometry" />
        </mxCell>
        <mxCell id="s6OSc2W3i6KVsnKIQPC7-151" value="Country" style="swimlane;fontStyle=0;childLayout=stackLayout;horizontal=1;startSize=26;horizontalStack=0;resizeParent=1;resizeParentMax=0;resizeLast=0;collapsible=1;marginBottom=0;align=center;fontSize=14;" vertex="1" parent="1">
          <mxGeometry x="-216" y="1994" width="140" height="86" as="geometry" />
        </mxCell>
        <mxCell id="s6OSc2W3i6KVsnKIQPC7-152" value="&lt;u&gt;Country_number&lt;/u&gt;" style="text;strokeColor=none;fillColor=none;spacingLeft=4;spacingRight=4;overflow=hidden;rotatable=0;points=[[0,0.5],[1,0.5]];portConstraint=eastwest;fontSize=12;whiteSpace=wrap;html=1;" vertex="1" parent="s6OSc2W3i6KVsnKIQPC7-151">
          <mxGeometry y="26" width="140" height="30" as="geometry" />
        </mxCell>
        <mxCell id="s6OSc2W3i6KVsnKIQPC7-153" value="&lt;u&gt;Country_name&lt;/u&gt;" style="text;strokeColor=none;fillColor=none;spacingLeft=4;spacingRight=4;overflow=hidden;rotatable=0;points=[[0,0.5],[1,0.5]];portConstraint=eastwest;fontSize=12;whiteSpace=wrap;html=1;" vertex="1" parent="s6OSc2W3i6KVsnKIQPC7-151">
          <mxGeometry y="56" width="140" height="30" as="geometry" />
        </mxCell>
        <mxCell id="s6OSc2W3i6KVsnKIQPC7-154" value="Geography" style="rounded=1;whiteSpace=wrap;html=1;fillColor=#FFE599;" vertex="1" parent="1">
          <mxGeometry x="-193" y="1794" width="96" height="27" as="geometry" />
        </mxCell>
        <mxCell id="s6OSc2W3i6KVsnKIQPC7-155" style="rounded=0;orthogonalLoop=1;jettySize=auto;html=1;exitX=0.5;exitY=0;exitDx=0;exitDy=0;entryX=0.491;entryY=0.984;entryDx=0;entryDy=0;entryPerimeter=0;endArrow=ERoneToMany;endFill=0;" edge="1" parent="1" source="s6OSc2W3i6KVsnKIQPC7-151" target="s6OSc2W3i6KVsnKIQPC7-150">
          <mxGeometry relative="1" as="geometry" />
        </mxCell>
        <mxCell id="s6OSc2W3i6KVsnKIQPC7-156" value="&lt;b&gt;DIM_Invoice&lt;/b&gt;" style="swimlane;fontStyle=0;childLayout=stackLayout;horizontal=1;startSize=30;horizontalStack=0;resizeParent=1;resizeParentMax=0;resizeLast=0;collapsible=1;marginBottom=0;whiteSpace=wrap;html=1;" vertex="1" parent="1">
          <mxGeometry x="-633" y="2189" width="176" height="209" as="geometry">
            <mxRectangle x="310" y="177" width="54" height="30" as="alternateBounds" />
          </mxGeometry>
        </mxCell>
        <mxCell id="s6OSc2W3i6KVsnKIQPC7-157" value="&lt;span style=&quot;font-weight: bold; text-decoration-line: underline;&quot;&gt;&lt;font style=&quot;font-size: 12px;&quot;&gt;invoice and item_key&lt;br&gt;&lt;/font&gt;&lt;/span&gt;&lt;span data-lucid-content=&quot;{&amp;quot;t&amp;quot;:&amp;quot;Invoice and item_number\n&amp;quot;,&amp;quot;m&amp;quot;:[{&amp;quot;s&amp;quot;:0,&amp;quot;n&amp;quot;:&amp;quot;p&amp;quot;,&amp;quot;v&amp;quot;:0.9999977272778926},{&amp;quot;s&amp;quot;:0,&amp;quot;n&amp;quot;:&amp;quot;a&amp;quot;,&amp;quot;v&amp;quot;:&amp;quot;left&amp;quot;},{&amp;quot;s&amp;quot;:0,&amp;quot;n&amp;quot;:&amp;quot;fc&amp;quot;,&amp;quot;v&amp;quot;:&amp;quot;Bold&amp;quot;,&amp;quot;e&amp;quot;:23},{&amp;quot;s&amp;quot;:0,&amp;quot;n&amp;quot;:&amp;quot;fid&amp;quot;,&amp;quot;v&amp;quot;:5,&amp;quot;e&amp;quot;:23},{&amp;quot;s&amp;quot;:0,&amp;quot;n&amp;quot;:&amp;quot;b&amp;quot;,&amp;quot;v&amp;quot;:true,&amp;quot;e&amp;quot;:23},{&amp;quot;s&amp;quot;:0,&amp;quot;n&amp;quot;:&amp;quot;u&amp;quot;,&amp;quot;v&amp;quot;:true,&amp;quot;e&amp;quot;:24},{&amp;quot;s&amp;quot;:0,&amp;quot;n&amp;quot;:&amp;quot;s&amp;quot;,&amp;quot;v&amp;quot;:19.555600000000002,&amp;quot;e&amp;quot;:24}]}&quot; data-lucid-type=&quot;application/vnd.lucid.text&quot;&gt;&lt;/span&gt;" style="text;strokeColor=none;fillColor=none;align=left;verticalAlign=middle;spacingLeft=4;spacingRight=4;overflow=hidden;points=[[0,0.5],[1,0.5]];portConstraint=eastwest;rotatable=0;whiteSpace=wrap;html=1;" vertex="1" parent="s6OSc2W3i6KVsnKIQPC7-156">
          <mxGeometry y="30" width="176" height="30" as="geometry" />
        </mxCell>
        <mxCell id="s6OSc2W3i6KVsnKIQPC7-158" value="&lt;span style=&quot;&quot;&gt;&lt;font style=&quot;font-size: 12px;&quot;&gt;invoice and item_number&lt;/font&gt;&lt;/span&gt;&lt;span data-lucid-content=&quot;{&amp;quot;t&amp;quot;:&amp;quot;Invoice and item_number\n&amp;quot;,&amp;quot;m&amp;quot;:[{&amp;quot;s&amp;quot;:0,&amp;quot;n&amp;quot;:&amp;quot;p&amp;quot;,&amp;quot;v&amp;quot;:0.9999977272778926},{&amp;quot;s&amp;quot;:0,&amp;quot;n&amp;quot;:&amp;quot;a&amp;quot;,&amp;quot;v&amp;quot;:&amp;quot;left&amp;quot;},{&amp;quot;s&amp;quot;:0,&amp;quot;n&amp;quot;:&amp;quot;fc&amp;quot;,&amp;quot;v&amp;quot;:&amp;quot;Bold&amp;quot;,&amp;quot;e&amp;quot;:23},{&amp;quot;s&amp;quot;:0,&amp;quot;n&amp;quot;:&amp;quot;fid&amp;quot;,&amp;quot;v&amp;quot;:5,&amp;quot;e&amp;quot;:23},{&amp;quot;s&amp;quot;:0,&amp;quot;n&amp;quot;:&amp;quot;b&amp;quot;,&amp;quot;v&amp;quot;:true,&amp;quot;e&amp;quot;:23},{&amp;quot;s&amp;quot;:0,&amp;quot;n&amp;quot;:&amp;quot;u&amp;quot;,&amp;quot;v&amp;quot;:true,&amp;quot;e&amp;quot;:24},{&amp;quot;s&amp;quot;:0,&amp;quot;n&amp;quot;:&amp;quot;s&amp;quot;,&amp;quot;v&amp;quot;:19.555600000000002,&amp;quot;e&amp;quot;:24}]}&quot; data-lucid-type=&quot;application/vnd.lucid.text&quot;&gt;&lt;/span&gt;" style="text;strokeColor=none;fillColor=none;align=left;verticalAlign=middle;spacingLeft=4;spacingRight=4;overflow=hidden;points=[[0,0.5],[1,0.5]];portConstraint=eastwest;rotatable=0;whiteSpace=wrap;html=1;fontStyle=0" vertex="1" parent="s6OSc2W3i6KVsnKIQPC7-156">
          <mxGeometry y="60" width="176" height="29" as="geometry" />
        </mxCell>
        <mxCell id="s6OSc2W3i6KVsnKIQPC7-159" value="bottles_sold" style="text;strokeColor=none;fillColor=none;align=left;verticalAlign=middle;spacingLeft=4;spacingRight=4;overflow=hidden;points=[[0,0.5],[1,0.5]];portConstraint=eastwest;rotatable=0;whiteSpace=wrap;html=1;" vertex="1" parent="s6OSc2W3i6KVsnKIQPC7-156">
          <mxGeometry y="89" width="176" height="30" as="geometry" />
        </mxCell>
        <mxCell id="s6OSc2W3i6KVsnKIQPC7-160" value="sale_dollars" style="text;strokeColor=none;fillColor=none;align=left;verticalAlign=middle;spacingLeft=4;spacingRight=4;overflow=hidden;points=[[0,0.5],[1,0.5]];portConstraint=eastwest;rotatable=0;whiteSpace=wrap;html=1;" vertex="1" parent="s6OSc2W3i6KVsnKIQPC7-156">
          <mxGeometry y="119" width="176" height="30" as="geometry" />
        </mxCell>
        <mxCell id="s6OSc2W3i6KVsnKIQPC7-161" value="volume_sold_liters" style="text;strokeColor=none;fillColor=none;align=left;verticalAlign=middle;spacingLeft=4;spacingRight=4;overflow=hidden;points=[[0,0.5],[1,0.5]];portConstraint=eastwest;rotatable=0;whiteSpace=wrap;html=1;" vertex="1" parent="s6OSc2W3i6KVsnKIQPC7-156">
          <mxGeometry y="149" width="176" height="30" as="geometry" />
        </mxCell>
        <mxCell id="s6OSc2W3i6KVsnKIQPC7-162" value="volume_sold_gallons" style="text;strokeColor=none;fillColor=none;align=left;verticalAlign=middle;spacingLeft=4;spacingRight=4;overflow=hidden;points=[[0,0.5],[1,0.5]];portConstraint=eastwest;rotatable=0;whiteSpace=wrap;html=1;" vertex="1" parent="s6OSc2W3i6KVsnKIQPC7-156">
          <mxGeometry y="179" width="176" height="30" as="geometry" />
        </mxCell>
        <mxCell id="s6OSc2W3i6KVsnKIQPC7-163" value="&lt;b&gt;DIM_Category&lt;/b&gt;" style="swimlane;fontStyle=0;childLayout=stackLayout;horizontal=1;startSize=30;horizontalStack=0;resizeParent=1;resizeParentMax=0;resizeLast=0;collapsible=1;marginBottom=0;whiteSpace=wrap;html=1;" vertex="1" parent="1">
          <mxGeometry x="74" y="2230" width="140" height="150" as="geometry">
            <mxRectangle x="778" y="183" width="116" height="30" as="alternateBounds" />
          </mxGeometry>
        </mxCell>
        <mxCell id="s6OSc2W3i6KVsnKIQPC7-164" value="&lt;u&gt;&lt;b&gt;category_key&lt;/b&gt;&lt;/u&gt;" style="text;strokeColor=none;fillColor=none;align=left;verticalAlign=middle;spacingLeft=4;spacingRight=4;overflow=hidden;points=[[0,0.5],[1,0.5]];portConstraint=eastwest;rotatable=0;whiteSpace=wrap;html=1;" vertex="1" parent="s6OSc2W3i6KVsnKIQPC7-163">
          <mxGeometry y="30" width="140" height="30" as="geometry" />
        </mxCell>
        <mxCell id="s6OSc2W3i6KVsnKIQPC7-165" value="category" style="text;strokeColor=none;fillColor=none;align=left;verticalAlign=middle;spacingLeft=4;spacingRight=4;overflow=hidden;points=[[0,0.5],[1,0.5]];portConstraint=eastwest;rotatable=0;whiteSpace=wrap;html=1;" vertex="1" parent="s6OSc2W3i6KVsnKIQPC7-163">
          <mxGeometry y="60" width="140" height="30" as="geometry" />
        </mxCell>
        <mxCell id="Oi-4oGd76fah8bpoZIVX-1" value="category_name" style="text;strokeColor=none;fillColor=none;align=left;verticalAlign=middle;spacingLeft=4;spacingRight=4;overflow=hidden;points=[[0,0.5],[1,0.5]];portConstraint=eastwest;rotatable=0;whiteSpace=wrap;html=1;" vertex="1" parent="s6OSc2W3i6KVsnKIQPC7-163">
          <mxGeometry y="90" width="140" height="30" as="geometry" />
        </mxCell>
        <mxCell id="s6OSc2W3i6KVsnKIQPC7-166" value="pack" style="text;strokeColor=none;fillColor=none;align=left;verticalAlign=middle;spacingLeft=4;spacingRight=4;overflow=hidden;points=[[0,0.5],[1,0.5]];portConstraint=eastwest;rotatable=0;whiteSpace=wrap;html=1;" vertex="1" parent="s6OSc2W3i6KVsnKIQPC7-163">
          <mxGeometry y="120" width="140" height="30" as="geometry" />
        </mxCell>
        <mxCell id="s6OSc2W3i6KVsnKIQPC7-167" value="&lt;b&gt;DIM_Store&lt;/b&gt;" style="swimlane;fontStyle=0;childLayout=stackLayout;horizontal=1;startSize=30;horizontalStack=0;resizeParent=1;resizeParentMax=0;resizeLast=0;collapsible=1;marginBottom=0;whiteSpace=wrap;html=1;" vertex="1" parent="1">
          <mxGeometry x="-624" y="2441" width="140" height="270" as="geometry" />
        </mxCell>
        <mxCell id="s6OSc2W3i6KVsnKIQPC7-168" value="&lt;b&gt;&lt;u&gt;store_key&lt;br&gt;&lt;/u&gt;&lt;/b&gt;" style="text;strokeColor=none;fillColor=none;align=left;verticalAlign=middle;spacingLeft=4;spacingRight=4;overflow=hidden;points=[[0,0.5],[1,0.5]];portConstraint=eastwest;rotatable=0;whiteSpace=wrap;html=1;" vertex="1" parent="s6OSc2W3i6KVsnKIQPC7-167">
          <mxGeometry y="30" width="140" height="30" as="geometry" />
        </mxCell>
        <mxCell id="s6OSc2W3i6KVsnKIQPC7-169" value="store_number" style="text;strokeColor=none;fillColor=none;align=left;verticalAlign=middle;spacingLeft=4;spacingRight=4;overflow=hidden;points=[[0,0.5],[1,0.5]];portConstraint=eastwest;rotatable=0;whiteSpace=wrap;html=1;" vertex="1" parent="s6OSc2W3i6KVsnKIQPC7-167">
          <mxGeometry y="60" width="140" height="30" as="geometry" />
        </mxCell>
        <mxCell id="s6OSc2W3i6KVsnKIQPC7-170" value="store_name" style="text;strokeColor=none;fillColor=none;align=left;verticalAlign=middle;spacingLeft=4;spacingRight=4;overflow=hidden;points=[[0,0.5],[1,0.5]];portConstraint=eastwest;rotatable=0;whiteSpace=wrap;html=1;" vertex="1" parent="s6OSc2W3i6KVsnKIQPC7-167">
          <mxGeometry y="90" width="140" height="30" as="geometry" />
        </mxCell>
        <mxCell id="s6OSc2W3i6KVsnKIQPC7-171" value="store_location" style="text;strokeColor=none;fillColor=none;align=left;verticalAlign=middle;spacingLeft=4;spacingRight=4;overflow=hidden;points=[[0,0.5],[1,0.5]];portConstraint=eastwest;rotatable=0;whiteSpace=wrap;html=1;" vertex="1" parent="s6OSc2W3i6KVsnKIQPC7-167">
          <mxGeometry y="120" width="140" height="30" as="geometry" />
        </mxCell>
        <mxCell id="s6OSc2W3i6KVsnKIQPC7-175" value="address" style="text;strokeColor=none;fillColor=none;align=left;verticalAlign=middle;spacingLeft=4;spacingRight=4;overflow=hidden;points=[[0,0.5],[1,0.5]];portConstraint=eastwest;rotatable=0;whiteSpace=wrap;html=1;" vertex="1" parent="s6OSc2W3i6KVsnKIQPC7-167">
          <mxGeometry y="150" width="140" height="30" as="geometry" />
        </mxCell>
        <mxCell id="s6OSc2W3i6KVsnKIQPC7-172" value="city" style="text;strokeColor=none;fillColor=none;align=left;verticalAlign=middle;spacingLeft=4;spacingRight=4;overflow=hidden;points=[[0,0.5],[1,0.5]];portConstraint=eastwest;rotatable=0;whiteSpace=wrap;html=1;" vertex="1" parent="s6OSc2W3i6KVsnKIQPC7-167">
          <mxGeometry y="180" width="140" height="30" as="geometry" />
        </mxCell>
        <mxCell id="s6OSc2W3i6KVsnKIQPC7-173" value="country" style="text;strokeColor=none;fillColor=none;align=left;verticalAlign=middle;spacingLeft=4;spacingRight=4;overflow=hidden;points=[[0,0.5],[1,0.5]];portConstraint=eastwest;rotatable=0;whiteSpace=wrap;html=1;" vertex="1" parent="s6OSc2W3i6KVsnKIQPC7-167">
          <mxGeometry y="210" width="140" height="30" as="geometry" />
        </mxCell>
        <mxCell id="s6OSc2W3i6KVsnKIQPC7-174" value="zip_code" style="text;strokeColor=none;fillColor=none;align=left;verticalAlign=middle;spacingLeft=4;spacingRight=4;overflow=hidden;points=[[0,0.5],[1,0.5]];portConstraint=eastwest;rotatable=0;whiteSpace=wrap;html=1;" vertex="1" parent="s6OSc2W3i6KVsnKIQPC7-167">
          <mxGeometry y="240" width="140" height="30" as="geometry" />
        </mxCell>
        <mxCell id="s6OSc2W3i6KVsnKIQPC7-176" value="&lt;b&gt;DIM_Vendor&lt;/b&gt;" style="swimlane;fontStyle=0;childLayout=stackLayout;horizontal=1;startSize=30;horizontalStack=0;resizeParent=1;resizeParentMax=0;resizeLast=0;collapsible=1;marginBottom=0;whiteSpace=wrap;html=1;" vertex="1" parent="1">
          <mxGeometry x="71" y="2729" width="140" height="120" as="geometry" />
        </mxCell>
        <mxCell id="s6OSc2W3i6KVsnKIQPC7-177" value="vendor_key" style="text;strokeColor=none;fillColor=none;align=left;verticalAlign=middle;spacingLeft=4;spacingRight=4;overflow=hidden;points=[[0,0.5],[1,0.5]];portConstraint=eastwest;rotatable=0;whiteSpace=wrap;html=1;fontStyle=5" vertex="1" parent="s6OSc2W3i6KVsnKIQPC7-176">
          <mxGeometry y="30" width="140" height="30" as="geometry" />
        </mxCell>
        <mxCell id="s6OSc2W3i6KVsnKIQPC7-178" value="vendor_name" style="text;strokeColor=none;fillColor=none;align=left;verticalAlign=middle;spacingLeft=4;spacingRight=4;overflow=hidden;points=[[0,0.5],[1,0.5]];portConstraint=eastwest;rotatable=0;whiteSpace=wrap;html=1;" vertex="1" parent="s6OSc2W3i6KVsnKIQPC7-176">
          <mxGeometry y="60" width="140" height="30" as="geometry" />
        </mxCell>
        <mxCell id="s6OSc2W3i6KVsnKIQPC7-179" value="vendor_number&lt;span style=&quot;white-space: pre;&quot;&gt;&#x9;&lt;/span&gt;" style="text;strokeColor=none;fillColor=none;align=left;verticalAlign=middle;spacingLeft=4;spacingRight=4;overflow=hidden;points=[[0,0.5],[1,0.5]];portConstraint=eastwest;rotatable=0;whiteSpace=wrap;html=1;" vertex="1" parent="s6OSc2W3i6KVsnKIQPC7-176">
          <mxGeometry y="90" width="140" height="30" as="geometry" />
        </mxCell>
        <mxCell id="s6OSc2W3i6KVsnKIQPC7-180" value="&lt;b&gt;DIM_Time&lt;/b&gt;" style="swimlane;fontStyle=0;childLayout=stackLayout;horizontal=1;startSize=30;horizontalStack=0;resizeParent=1;resizeParentMax=0;resizeLast=0;collapsible=1;marginBottom=0;whiteSpace=wrap;html=1;" vertex="1" parent="1">
          <mxGeometry x="-624" y="2769" width="140" height="180" as="geometry" />
        </mxCell>
        <mxCell id="s6OSc2W3i6KVsnKIQPC7-181" value="&lt;b&gt;&lt;u&gt;time_key&lt;/u&gt;&lt;/b&gt;" style="text;strokeColor=none;fillColor=none;align=left;verticalAlign=middle;spacingLeft=4;spacingRight=4;overflow=hidden;points=[[0,0.5],[1,0.5]];portConstraint=eastwest;rotatable=0;whiteSpace=wrap;html=1;" vertex="1" parent="s6OSc2W3i6KVsnKIQPC7-180">
          <mxGeometry y="30" width="140" height="30" as="geometry" />
        </mxCell>
        <mxCell id="s6OSc2W3i6KVsnKIQPC7-182" value="date" style="text;strokeColor=none;fillColor=none;align=left;verticalAlign=middle;spacingLeft=4;spacingRight=4;overflow=hidden;points=[[0,0.5],[1,0.5]];portConstraint=eastwest;rotatable=0;whiteSpace=wrap;html=1;" vertex="1" parent="s6OSc2W3i6KVsnKIQPC7-180">
          <mxGeometry y="60" width="140" height="30" as="geometry" />
        </mxCell>
        <mxCell id="s6OSc2W3i6KVsnKIQPC7-183" value="month" style="text;strokeColor=none;fillColor=none;align=left;verticalAlign=middle;spacingLeft=4;spacingRight=4;overflow=hidden;points=[[0,0.5],[1,0.5]];portConstraint=eastwest;rotatable=0;whiteSpace=wrap;html=1;" vertex="1" parent="s6OSc2W3i6KVsnKIQPC7-180">
          <mxGeometry y="90" width="140" height="30" as="geometry" />
        </mxCell>
        <mxCell id="s6OSc2W3i6KVsnKIQPC7-184" value="quarter" style="text;strokeColor=none;fillColor=none;align=left;verticalAlign=middle;spacingLeft=4;spacingRight=4;overflow=hidden;points=[[0,0.5],[1,0.5]];portConstraint=eastwest;rotatable=0;whiteSpace=wrap;html=1;" vertex="1" parent="s6OSc2W3i6KVsnKIQPC7-180">
          <mxGeometry y="120" width="140" height="30" as="geometry" />
        </mxCell>
        <mxCell id="s6OSc2W3i6KVsnKIQPC7-185" value="year" style="text;strokeColor=none;fillColor=none;align=left;verticalAlign=middle;spacingLeft=4;spacingRight=4;overflow=hidden;points=[[0,0.5],[1,0.5]];portConstraint=eastwest;rotatable=0;whiteSpace=wrap;html=1;" vertex="1" parent="s6OSc2W3i6KVsnKIQPC7-180">
          <mxGeometry y="150" width="140" height="30" as="geometry" />
        </mxCell>
        <mxCell id="s6OSc2W3i6KVsnKIQPC7-186" value="&lt;b&gt;DIM_Item&lt;/b&gt;" style="swimlane;fontStyle=0;childLayout=stackLayout;horizontal=1;startSize=30;horizontalStack=0;resizeParent=1;resizeParentMax=0;resizeLast=0;collapsible=1;marginBottom=0;whiteSpace=wrap;html=1;" vertex="1" parent="1">
          <mxGeometry x="74" y="2447" width="140" height="210" as="geometry" />
        </mxCell>
        <mxCell id="s6OSc2W3i6KVsnKIQPC7-187" value="item_key" style="text;strokeColor=none;fillColor=none;align=left;verticalAlign=middle;spacingLeft=4;spacingRight=4;overflow=hidden;points=[[0,0.5],[1,0.5]];portConstraint=eastwest;rotatable=0;whiteSpace=wrap;html=1;fontStyle=5" vertex="1" parent="s6OSc2W3i6KVsnKIQPC7-186">
          <mxGeometry y="30" width="140" height="30" as="geometry" />
        </mxCell>
        <mxCell id="s6OSc2W3i6KVsnKIQPC7-188" value="item_number" style="text;strokeColor=none;fillColor=none;align=left;verticalAlign=middle;spacingLeft=4;spacingRight=4;overflow=hidden;points=[[0,0.5],[1,0.5]];portConstraint=eastwest;rotatable=0;whiteSpace=wrap;html=1;" vertex="1" parent="s6OSc2W3i6KVsnKIQPC7-186">
          <mxGeometry y="60" width="140" height="30" as="geometry" />
        </mxCell>
        <mxCell id="s6OSc2W3i6KVsnKIQPC7-189" value="item_description" style="text;strokeColor=none;fillColor=none;align=left;verticalAlign=middle;spacingLeft=4;spacingRight=4;overflow=hidden;points=[[0,0.5],[1,0.5]];portConstraint=eastwest;rotatable=0;whiteSpace=wrap;html=1;" vertex="1" parent="s6OSc2W3i6KVsnKIQPC7-186">
          <mxGeometry y="90" width="140" height="30" as="geometry" />
        </mxCell>
        <mxCell id="s6OSc2W3i6KVsnKIQPC7-190" value="bottle_volume_ml" style="text;strokeColor=none;fillColor=none;align=left;verticalAlign=middle;spacingLeft=4;spacingRight=4;overflow=hidden;points=[[0,0.5],[1,0.5]];portConstraint=eastwest;rotatable=0;whiteSpace=wrap;html=1;" vertex="1" parent="s6OSc2W3i6KVsnKIQPC7-186">
          <mxGeometry y="120" width="140" height="30" as="geometry" />
        </mxCell>
        <mxCell id="s6OSc2W3i6KVsnKIQPC7-191" value="state_bottle_cost" style="text;strokeColor=none;fillColor=none;align=left;verticalAlign=middle;spacingLeft=4;spacingRight=4;overflow=hidden;points=[[0,0.5],[1,0.5]];portConstraint=eastwest;rotatable=0;whiteSpace=wrap;html=1;" vertex="1" parent="s6OSc2W3i6KVsnKIQPC7-186">
          <mxGeometry y="150" width="140" height="30" as="geometry" />
        </mxCell>
        <mxCell id="s6OSc2W3i6KVsnKIQPC7-192" value="state_bottle_retail" style="text;strokeColor=none;fillColor=none;align=left;verticalAlign=middle;spacingLeft=4;spacingRight=4;overflow=hidden;points=[[0,0.5],[1,0.5]];portConstraint=eastwest;rotatable=0;whiteSpace=wrap;html=1;" vertex="1" parent="s6OSc2W3i6KVsnKIQPC7-186">
          <mxGeometry y="180" width="140" height="30" as="geometry" />
        </mxCell>
        <mxCell id="s6OSc2W3i6KVsnKIQPC7-193" value="&lt;b&gt;FACT_Sale&lt;/b&gt;" style="swimlane;fontStyle=0;childLayout=stackLayout;horizontal=1;startSize=30;horizontalStack=0;resizeParent=1;resizeParentMax=0;resizeLast=0;collapsible=1;marginBottom=0;whiteSpace=wrap;html=1;fillColor=#f8cecc;strokeColor=#b85450;" vertex="1" parent="1">
          <mxGeometry x="-311" y="2372" width="239" height="300" as="geometry">
            <mxRectangle x="310" y="177" width="54" height="30" as="alternateBounds" />
          </mxGeometry>
        </mxCell>
        <mxCell id="s6OSc2W3i6KVsnKIQPC7-194" value="&lt;u&gt;invoice_key&lt;/u&gt;" style="text;strokeColor=none;fillColor=none;align=left;verticalAlign=middle;spacingLeft=4;spacingRight=4;overflow=hidden;points=[[0,0.5],[1,0.5]];portConstraint=eastwest;rotatable=0;whiteSpace=wrap;html=1;" vertex="1" parent="s6OSc2W3i6KVsnKIQPC7-193">
          <mxGeometry y="30" width="239" height="30" as="geometry" />
        </mxCell>
        <mxCell id="eCs9aUnymLriKfzYG-OO-1" value="&lt;u&gt;store_key&lt;/u&gt;" style="text;strokeColor=none;fillColor=none;align=left;verticalAlign=middle;spacingLeft=4;spacingRight=4;overflow=hidden;points=[[0,0.5],[1,0.5]];portConstraint=eastwest;rotatable=0;whiteSpace=wrap;html=1;" vertex="1" parent="s6OSc2W3i6KVsnKIQPC7-193">
          <mxGeometry y="60" width="239" height="30" as="geometry" />
        </mxCell>
        <mxCell id="eCs9aUnymLriKfzYG-OO-4" value="&lt;u&gt;category_key&lt;/u&gt;" style="text;strokeColor=none;fillColor=none;align=left;verticalAlign=middle;spacingLeft=4;spacingRight=4;overflow=hidden;points=[[0,0.5],[1,0.5]];portConstraint=eastwest;rotatable=0;whiteSpace=wrap;html=1;" vertex="1" parent="s6OSc2W3i6KVsnKIQPC7-193">
          <mxGeometry y="90" width="239" height="30" as="geometry" />
        </mxCell>
        <mxCell id="eCs9aUnymLriKfzYG-OO-5" value="&lt;u&gt;item_key&lt;/u&gt;" style="text;strokeColor=none;fillColor=none;align=left;verticalAlign=middle;spacingLeft=4;spacingRight=4;overflow=hidden;points=[[0,0.5],[1,0.5]];portConstraint=eastwest;rotatable=0;whiteSpace=wrap;html=1;" vertex="1" parent="s6OSc2W3i6KVsnKIQPC7-193">
          <mxGeometry y="120" width="239" height="30" as="geometry" />
        </mxCell>
        <mxCell id="qOyn9Jk3K2K5fzZa0EfU-9" value="&lt;u&gt;vendor_key&lt;/u&gt;" style="text;strokeColor=none;fillColor=none;align=left;verticalAlign=middle;spacingLeft=4;spacingRight=4;overflow=hidden;points=[[0,0.5],[1,0.5]];portConstraint=eastwest;rotatable=0;whiteSpace=wrap;html=1;" vertex="1" parent="s6OSc2W3i6KVsnKIQPC7-193">
          <mxGeometry y="150" width="239" height="30" as="geometry" />
        </mxCell>
        <mxCell id="s6OSc2W3i6KVsnKIQPC7-195" value="&lt;u style=&quot;&quot;&gt;time_key&lt;/u&gt;" style="text;strokeColor=none;fillColor=none;align=left;verticalAlign=middle;spacingLeft=4;spacingRight=4;overflow=hidden;points=[[0,0.5],[1,0.5]];portConstraint=eastwest;rotatable=0;whiteSpace=wrap;html=1;" vertex="1" parent="s6OSc2W3i6KVsnKIQPC7-193">
          <mxGeometry y="180" width="239" height="30" as="geometry" />
        </mxCell>
        <mxCell id="LydNl2UdyDSIXbiAf4ib-20" value="revenue" style="text;strokeColor=none;fillColor=none;align=left;verticalAlign=middle;spacingLeft=4;spacingRight=4;overflow=hidden;points=[[0,0.5],[1,0.5]];portConstraint=eastwest;rotatable=0;whiteSpace=wrap;html=1;" vertex="1" parent="s6OSc2W3i6KVsnKIQPC7-193">
          <mxGeometry y="210" width="239" height="30" as="geometry" />
        </mxCell>
        <mxCell id="LydNl2UdyDSIXbiAf4ib-24" value="profit" style="text;strokeColor=none;fillColor=none;align=left;verticalAlign=middle;spacingLeft=4;spacingRight=4;overflow=hidden;points=[[0,0.5],[1,0.5]];portConstraint=eastwest;rotatable=0;whiteSpace=wrap;html=1;" vertex="1" parent="s6OSc2W3i6KVsnKIQPC7-193">
          <mxGeometry y="240" width="239" height="30" as="geometry" />
        </mxCell>
        <mxCell id="qOyn9Jk3K2K5fzZa0EfU-12" value="cost" style="text;strokeColor=none;fillColor=none;align=left;verticalAlign=middle;spacingLeft=4;spacingRight=4;overflow=hidden;points=[[0,0.5],[1,0.5]];portConstraint=eastwest;rotatable=0;whiteSpace=wrap;html=1;" vertex="1" parent="s6OSc2W3i6KVsnKIQPC7-193">
          <mxGeometry y="270" width="239" height="30" as="geometry" />
        </mxCell>
        <mxCell id="qOyn9Jk3K2K5fzZa0EfU-14" style="edgeStyle=orthogonalEdgeStyle;rounded=0;orthogonalLoop=1;jettySize=auto;html=1;exitX=1;exitY=0.5;exitDx=0;exitDy=0;" edge="1" parent="s6OSc2W3i6KVsnKIQPC7-193" source="s6OSc2W3i6KVsnKIQPC7-195" target="s6OSc2W3i6KVsnKIQPC7-195">
          <mxGeometry relative="1" as="geometry" />
        </mxCell>
        <mxCell id="eCs9aUnymLriKfzYG-OO-9" style="rounded=0;orthogonalLoop=1;jettySize=auto;html=1;exitX=1;exitY=0.5;exitDx=0;exitDy=0;entryX=0;entryY=0.5;entryDx=0;entryDy=0;startArrow=classic;startFill=1;endArrow=none;endFill=0;" edge="1" parent="1" source="s6OSc2W3i6KVsnKIQPC7-157" target="s6OSc2W3i6KVsnKIQPC7-194">
          <mxGeometry relative="1" as="geometry" />
        </mxCell>
        <mxCell id="eCs9aUnymLriKfzYG-OO-10" style="rounded=0;orthogonalLoop=1;jettySize=auto;html=1;exitX=1;exitY=0.5;exitDx=0;exitDy=0;entryX=0;entryY=0.5;entryDx=0;entryDy=0;startArrow=classic;startFill=1;endArrow=none;endFill=0;" edge="1" parent="1" source="s6OSc2W3i6KVsnKIQPC7-168" target="eCs9aUnymLriKfzYG-OO-1">
          <mxGeometry relative="1" as="geometry" />
        </mxCell>
        <mxCell id="eCs9aUnymLriKfzYG-OO-11" style="rounded=0;orthogonalLoop=1;jettySize=auto;html=1;exitX=0;exitY=0.5;exitDx=0;exitDy=0;entryX=1;entryY=0.5;entryDx=0;entryDy=0;startArrow=classic;startFill=1;endArrow=none;endFill=0;" edge="1" parent="1" source="s6OSc2W3i6KVsnKIQPC7-164" target="eCs9aUnymLriKfzYG-OO-4">
          <mxGeometry relative="1" as="geometry" />
        </mxCell>
        <mxCell id="eCs9aUnymLriKfzYG-OO-12" style="rounded=0;orthogonalLoop=1;jettySize=auto;html=1;exitX=0;exitY=0.5;exitDx=0;exitDy=0;entryX=1;entryY=0.5;entryDx=0;entryDy=0;startArrow=classic;startFill=1;endArrow=none;endFill=0;" edge="1" parent="1" source="s6OSc2W3i6KVsnKIQPC7-187" target="eCs9aUnymLriKfzYG-OO-5">
          <mxGeometry relative="1" as="geometry" />
        </mxCell>
        <mxCell id="eCs9aUnymLriKfzYG-OO-13" style="rounded=0;orthogonalLoop=1;jettySize=auto;html=1;exitX=1;exitY=0.5;exitDx=0;exitDy=0;entryX=0;entryY=0.5;entryDx=0;entryDy=0;startArrow=classic;startFill=1;endArrow=none;endFill=0;" edge="1" parent="1" source="s6OSc2W3i6KVsnKIQPC7-181" target="s6OSc2W3i6KVsnKIQPC7-195">
          <mxGeometry relative="1" as="geometry" />
        </mxCell>
        <mxCell id="qOyn9Jk3K2K5fzZa0EfU-13" style="rounded=0;orthogonalLoop=1;jettySize=auto;html=1;entryX=0;entryY=0.5;entryDx=0;entryDy=0;exitX=1;exitY=0.5;exitDx=0;exitDy=0;" edge="1" parent="1" source="LydNl2UdyDSIXbiAf4ib-4" target="s6OSc2W3i6KVsnKIQPC7-168">
          <mxGeometry relative="1" as="geometry">
            <mxPoint x="-783" y="2262" as="sourcePoint" />
          </mxGeometry>
        </mxCell>
        <mxCell id="qOyn9Jk3K2K5fzZa0EfU-15" style="rounded=0;orthogonalLoop=1;jettySize=auto;html=1;entryX=0;entryY=0.5;entryDx=0;entryDy=0;exitX=1;exitY=0.5;exitDx=0;exitDy=0;" edge="1" parent="1" source="vkFzOL-VumdsYGp-NjrM-1" target="s6OSc2W3i6KVsnKIQPC7-181">
          <mxGeometry relative="1" as="geometry" />
        </mxCell>
        <mxCell id="LydNl2UdyDSIXbiAf4ib-2" value="&lt;b&gt;FACT_Amount&lt;/b&gt;" style="swimlane;fontStyle=0;childLayout=stackLayout;horizontal=1;startSize=30;horizontalStack=0;resizeParent=1;resizeParentMax=0;resizeLast=0;collapsible=1;marginBottom=0;whiteSpace=wrap;html=1;fillColor=#f8cecc;strokeColor=#b85450;" vertex="1" parent="1">
          <mxGeometry x="-1044" y="2313" width="239" height="210" as="geometry">
            <mxRectangle x="310" y="177" width="54" height="30" as="alternateBounds" />
          </mxGeometry>
        </mxCell>
        <mxCell id="LydNl2UdyDSIXbiAf4ib-3" value="&lt;u&gt;invoice and item_key&lt;/u&gt;" style="text;strokeColor=none;fillColor=none;align=left;verticalAlign=middle;spacingLeft=4;spacingRight=4;overflow=hidden;points=[[0,0.5],[1,0.5]];portConstraint=eastwest;rotatable=0;whiteSpace=wrap;html=1;" vertex="1" parent="LydNl2UdyDSIXbiAf4ib-2">
          <mxGeometry y="30" width="239" height="30" as="geometry" />
        </mxCell>
        <mxCell id="LydNl2UdyDSIXbiAf4ib-4" value="&lt;u&gt;store_key&lt;/u&gt;" style="text;strokeColor=none;fillColor=none;align=left;verticalAlign=middle;spacingLeft=4;spacingRight=4;overflow=hidden;points=[[0,0.5],[1,0.5]];portConstraint=eastwest;rotatable=0;whiteSpace=wrap;html=1;" vertex="1" parent="LydNl2UdyDSIXbiAf4ib-2">
          <mxGeometry y="60" width="239" height="30" as="geometry" />
        </mxCell>
        <mxCell id="vkFzOL-VumdsYGp-NjrM-1" value="&lt;u&gt;time_key&lt;/u&gt;" style="text;strokeColor=none;fillColor=none;align=left;verticalAlign=middle;spacingLeft=4;spacingRight=4;overflow=hidden;points=[[0,0.5],[1,0.5]];portConstraint=eastwest;rotatable=0;whiteSpace=wrap;html=1;" vertex="1" parent="LydNl2UdyDSIXbiAf4ib-2">
          <mxGeometry y="90" width="239" height="30" as="geometry" />
        </mxCell>
        <mxCell id="qOyn9Jk3K2K5fzZa0EfU-6" value="total_bottles_sold" style="text;strokeColor=none;fillColor=none;align=left;verticalAlign=middle;spacingLeft=4;spacingRight=4;overflow=hidden;points=[[0,0.5],[1,0.5]];portConstraint=eastwest;rotatable=0;whiteSpace=wrap;html=1;" vertex="1" parent="LydNl2UdyDSIXbiAf4ib-2">
          <mxGeometry y="120" width="239" height="30" as="geometry" />
        </mxCell>
        <mxCell id="qOyn9Jk3K2K5fzZa0EfU-7" value="total_volume_sold_in_liters" style="text;strokeColor=none;fillColor=none;align=left;verticalAlign=middle;spacingLeft=4;spacingRight=4;overflow=hidden;points=[[0,0.5],[1,0.5]];portConstraint=eastwest;rotatable=0;whiteSpace=wrap;html=1;" vertex="1" parent="LydNl2UdyDSIXbiAf4ib-2">
          <mxGeometry y="150" width="239" height="30" as="geometry" />
        </mxCell>
        <mxCell id="qOyn9Jk3K2K5fzZa0EfU-8" value="total_volume_sold_in_gallons" style="text;strokeColor=none;fillColor=none;align=left;verticalAlign=middle;spacingLeft=4;spacingRight=4;overflow=hidden;points=[[0,0.5],[1,0.5]];portConstraint=eastwest;rotatable=0;whiteSpace=wrap;html=1;" vertex="1" parent="LydNl2UdyDSIXbiAf4ib-2">
          <mxGeometry y="180" width="239" height="30" as="geometry" />
        </mxCell>
        <mxCell id="LydNl2UdyDSIXbiAf4ib-17" style="rounded=0;orthogonalLoop=1;jettySize=auto;html=1;exitX=0;exitY=0.5;exitDx=0;exitDy=0;entryX=1;entryY=0.5;entryDx=0;entryDy=0;startArrow=classic;startFill=1;endArrow=none;endFill=0;" edge="1" parent="1" source="s6OSc2W3i6KVsnKIQPC7-157" target="LydNl2UdyDSIXbiAf4ib-3">
          <mxGeometry relative="1" as="geometry" />
        </mxCell>
        <mxCell id="qOyn9Jk3K2K5fzZa0EfU-11" style="rounded=0;orthogonalLoop=1;jettySize=auto;html=1;entryX=1;entryY=0.5;entryDx=0;entryDy=0;exitX=0;exitY=0.5;exitDx=0;exitDy=0;startArrow=classic;startFill=1;endArrow=none;endFill=0;" edge="1" parent="1" source="s6OSc2W3i6KVsnKIQPC7-177" target="qOyn9Jk3K2K5fzZa0EfU-9">
          <mxGeometry relative="1" as="geometry" />
        </mxCell>
        <mxCell id="vkFzOL-VumdsYGp-NjrM-2" value="&lt;b&gt;DIM_Invoice&lt;/b&gt;" style="swimlane;fontStyle=0;childLayout=stackLayout;horizontal=1;startSize=30;horizontalStack=0;resizeParent=1;resizeParentMax=0;resizeLast=0;collapsible=1;marginBottom=0;whiteSpace=wrap;html=1;" vertex="1" parent="1">
          <mxGeometry x="-585" y="999" width="176" height="209" as="geometry">
            <mxRectangle x="310" y="177" width="54" height="30" as="alternateBounds" />
          </mxGeometry>
        </mxCell>
        <mxCell id="vkFzOL-VumdsYGp-NjrM-3" value="&lt;span style=&quot;font-weight: bold; text-decoration-line: underline;&quot;&gt;&lt;font style=&quot;font-size: 12px;&quot;&gt;invoice and item_key&lt;br&gt;&lt;/font&gt;&lt;/span&gt;&lt;span data-lucid-content=&quot;{&amp;quot;t&amp;quot;:&amp;quot;Invoice and item_number\n&amp;quot;,&amp;quot;m&amp;quot;:[{&amp;quot;s&amp;quot;:0,&amp;quot;n&amp;quot;:&amp;quot;p&amp;quot;,&amp;quot;v&amp;quot;:0.9999977272778926},{&amp;quot;s&amp;quot;:0,&amp;quot;n&amp;quot;:&amp;quot;a&amp;quot;,&amp;quot;v&amp;quot;:&amp;quot;left&amp;quot;},{&amp;quot;s&amp;quot;:0,&amp;quot;n&amp;quot;:&amp;quot;fc&amp;quot;,&amp;quot;v&amp;quot;:&amp;quot;Bold&amp;quot;,&amp;quot;e&amp;quot;:23},{&amp;quot;s&amp;quot;:0,&amp;quot;n&amp;quot;:&amp;quot;fid&amp;quot;,&amp;quot;v&amp;quot;:5,&amp;quot;e&amp;quot;:23},{&amp;quot;s&amp;quot;:0,&amp;quot;n&amp;quot;:&amp;quot;b&amp;quot;,&amp;quot;v&amp;quot;:true,&amp;quot;e&amp;quot;:23},{&amp;quot;s&amp;quot;:0,&amp;quot;n&amp;quot;:&amp;quot;u&amp;quot;,&amp;quot;v&amp;quot;:true,&amp;quot;e&amp;quot;:24},{&amp;quot;s&amp;quot;:0,&amp;quot;n&amp;quot;:&amp;quot;s&amp;quot;,&amp;quot;v&amp;quot;:19.555600000000002,&amp;quot;e&amp;quot;:24}]}&quot; data-lucid-type=&quot;application/vnd.lucid.text&quot;&gt;&lt;/span&gt;" style="text;strokeColor=none;fillColor=none;align=left;verticalAlign=middle;spacingLeft=4;spacingRight=4;overflow=hidden;points=[[0,0.5],[1,0.5]];portConstraint=eastwest;rotatable=0;whiteSpace=wrap;html=1;" vertex="1" parent="vkFzOL-VumdsYGp-NjrM-2">
          <mxGeometry y="30" width="176" height="30" as="geometry" />
        </mxCell>
        <mxCell id="vkFzOL-VumdsYGp-NjrM-4" value="&lt;span style=&quot;&quot;&gt;&lt;font style=&quot;font-size: 12px;&quot;&gt;invoice and item_number&lt;/font&gt;&lt;/span&gt;&lt;span data-lucid-content=&quot;{&amp;quot;t&amp;quot;:&amp;quot;Invoice and item_number\n&amp;quot;,&amp;quot;m&amp;quot;:[{&amp;quot;s&amp;quot;:0,&amp;quot;n&amp;quot;:&amp;quot;p&amp;quot;,&amp;quot;v&amp;quot;:0.9999977272778926},{&amp;quot;s&amp;quot;:0,&amp;quot;n&amp;quot;:&amp;quot;a&amp;quot;,&amp;quot;v&amp;quot;:&amp;quot;left&amp;quot;},{&amp;quot;s&amp;quot;:0,&amp;quot;n&amp;quot;:&amp;quot;fc&amp;quot;,&amp;quot;v&amp;quot;:&amp;quot;Bold&amp;quot;,&amp;quot;e&amp;quot;:23},{&amp;quot;s&amp;quot;:0,&amp;quot;n&amp;quot;:&amp;quot;fid&amp;quot;,&amp;quot;v&amp;quot;:5,&amp;quot;e&amp;quot;:23},{&amp;quot;s&amp;quot;:0,&amp;quot;n&amp;quot;:&amp;quot;b&amp;quot;,&amp;quot;v&amp;quot;:true,&amp;quot;e&amp;quot;:23},{&amp;quot;s&amp;quot;:0,&amp;quot;n&amp;quot;:&amp;quot;u&amp;quot;,&amp;quot;v&amp;quot;:true,&amp;quot;e&amp;quot;:24},{&amp;quot;s&amp;quot;:0,&amp;quot;n&amp;quot;:&amp;quot;s&amp;quot;,&amp;quot;v&amp;quot;:19.555600000000002,&amp;quot;e&amp;quot;:24}]}&quot; data-lucid-type=&quot;application/vnd.lucid.text&quot;&gt;&lt;/span&gt;" style="text;strokeColor=none;fillColor=none;align=left;verticalAlign=middle;spacingLeft=4;spacingRight=4;overflow=hidden;points=[[0,0.5],[1,0.5]];portConstraint=eastwest;rotatable=0;whiteSpace=wrap;html=1;fontStyle=0" vertex="1" parent="vkFzOL-VumdsYGp-NjrM-2">
          <mxGeometry y="60" width="176" height="29" as="geometry" />
        </mxCell>
        <mxCell id="vkFzOL-VumdsYGp-NjrM-5" value="bottles_sold" style="text;strokeColor=none;fillColor=none;align=left;verticalAlign=middle;spacingLeft=4;spacingRight=4;overflow=hidden;points=[[0,0.5],[1,0.5]];portConstraint=eastwest;rotatable=0;whiteSpace=wrap;html=1;" vertex="1" parent="vkFzOL-VumdsYGp-NjrM-2">
          <mxGeometry y="89" width="176" height="30" as="geometry" />
        </mxCell>
        <mxCell id="vkFzOL-VumdsYGp-NjrM-6" value="sale_dollars" style="text;strokeColor=none;fillColor=none;align=left;verticalAlign=middle;spacingLeft=4;spacingRight=4;overflow=hidden;points=[[0,0.5],[1,0.5]];portConstraint=eastwest;rotatable=0;whiteSpace=wrap;html=1;" vertex="1" parent="vkFzOL-VumdsYGp-NjrM-2">
          <mxGeometry y="119" width="176" height="30" as="geometry" />
        </mxCell>
        <mxCell id="vkFzOL-VumdsYGp-NjrM-7" value="volume_sold_liters" style="text;strokeColor=none;fillColor=none;align=left;verticalAlign=middle;spacingLeft=4;spacingRight=4;overflow=hidden;points=[[0,0.5],[1,0.5]];portConstraint=eastwest;rotatable=0;whiteSpace=wrap;html=1;" vertex="1" parent="vkFzOL-VumdsYGp-NjrM-2">
          <mxGeometry y="149" width="176" height="30" as="geometry" />
        </mxCell>
        <mxCell id="vkFzOL-VumdsYGp-NjrM-8" value="volume_sold_gallons" style="text;strokeColor=none;fillColor=none;align=left;verticalAlign=middle;spacingLeft=4;spacingRight=4;overflow=hidden;points=[[0,0.5],[1,0.5]];portConstraint=eastwest;rotatable=0;whiteSpace=wrap;html=1;" vertex="1" parent="vkFzOL-VumdsYGp-NjrM-2">
          <mxGeometry y="179" width="176" height="30" as="geometry" />
        </mxCell>
        <mxCell id="vkFzOL-VumdsYGp-NjrM-9" value="&lt;b&gt;DIM_Category&lt;/b&gt;" style="swimlane;fontStyle=0;childLayout=stackLayout;horizontal=1;startSize=30;horizontalStack=0;resizeParent=1;resizeParentMax=0;resizeLast=0;collapsible=1;marginBottom=0;whiteSpace=wrap;html=1;" vertex="1" parent="1">
          <mxGeometry x="122" y="1040" width="140" height="150" as="geometry">
            <mxRectangle x="778" y="183" width="116" height="30" as="alternateBounds" />
          </mxGeometry>
        </mxCell>
        <mxCell id="vkFzOL-VumdsYGp-NjrM-10" value="&lt;u&gt;&lt;b&gt;category_key&lt;/b&gt;&lt;/u&gt;" style="text;strokeColor=none;fillColor=none;align=left;verticalAlign=middle;spacingLeft=4;spacingRight=4;overflow=hidden;points=[[0,0.5],[1,0.5]];portConstraint=eastwest;rotatable=0;whiteSpace=wrap;html=1;" vertex="1" parent="vkFzOL-VumdsYGp-NjrM-9">
          <mxGeometry y="30" width="140" height="30" as="geometry" />
        </mxCell>
        <mxCell id="vkFzOL-VumdsYGp-NjrM-11" value="category" style="text;strokeColor=none;fillColor=none;align=left;verticalAlign=middle;spacingLeft=4;spacingRight=4;overflow=hidden;points=[[0,0.5],[1,0.5]];portConstraint=eastwest;rotatable=0;whiteSpace=wrap;html=1;" vertex="1" parent="vkFzOL-VumdsYGp-NjrM-9">
          <mxGeometry y="60" width="140" height="30" as="geometry" />
        </mxCell>
        <mxCell id="vkFzOL-VumdsYGp-NjrM-12" value="category_name" style="text;strokeColor=none;fillColor=none;align=left;verticalAlign=middle;spacingLeft=4;spacingRight=4;overflow=hidden;points=[[0,0.5],[1,0.5]];portConstraint=eastwest;rotatable=0;whiteSpace=wrap;html=1;" vertex="1" parent="vkFzOL-VumdsYGp-NjrM-9">
          <mxGeometry y="90" width="140" height="30" as="geometry" />
        </mxCell>
        <mxCell id="vkFzOL-VumdsYGp-NjrM-13" value="pack" style="text;strokeColor=none;fillColor=none;align=left;verticalAlign=middle;spacingLeft=4;spacingRight=4;overflow=hidden;points=[[0,0.5],[1,0.5]];portConstraint=eastwest;rotatable=0;whiteSpace=wrap;html=1;" vertex="1" parent="vkFzOL-VumdsYGp-NjrM-9">
          <mxGeometry y="120" width="140" height="30" as="geometry" />
        </mxCell>
        <mxCell id="vkFzOL-VumdsYGp-NjrM-14" value="&lt;b&gt;DIM_Store&lt;/b&gt;" style="swimlane;fontStyle=0;childLayout=stackLayout;horizontal=1;startSize=30;horizontalStack=0;resizeParent=1;resizeParentMax=0;resizeLast=0;collapsible=1;marginBottom=0;whiteSpace=wrap;html=1;" vertex="1" parent="1">
          <mxGeometry x="-216" y="1524" width="140" height="270" as="geometry" />
        </mxCell>
        <mxCell id="vkFzOL-VumdsYGp-NjrM-15" value="&lt;b&gt;&lt;u&gt;store_key&lt;br&gt;&lt;/u&gt;&lt;/b&gt;" style="text;strokeColor=none;fillColor=none;align=left;verticalAlign=middle;spacingLeft=4;spacingRight=4;overflow=hidden;points=[[0,0.5],[1,0.5]];portConstraint=eastwest;rotatable=0;whiteSpace=wrap;html=1;" vertex="1" parent="vkFzOL-VumdsYGp-NjrM-14">
          <mxGeometry y="30" width="140" height="30" as="geometry" />
        </mxCell>
        <mxCell id="vkFzOL-VumdsYGp-NjrM-16" value="store_number" style="text;strokeColor=none;fillColor=none;align=left;verticalAlign=middle;spacingLeft=4;spacingRight=4;overflow=hidden;points=[[0,0.5],[1,0.5]];portConstraint=eastwest;rotatable=0;whiteSpace=wrap;html=1;" vertex="1" parent="vkFzOL-VumdsYGp-NjrM-14">
          <mxGeometry y="60" width="140" height="30" as="geometry" />
        </mxCell>
        <mxCell id="vkFzOL-VumdsYGp-NjrM-17" value="store_name" style="text;strokeColor=none;fillColor=none;align=left;verticalAlign=middle;spacingLeft=4;spacingRight=4;overflow=hidden;points=[[0,0.5],[1,0.5]];portConstraint=eastwest;rotatable=0;whiteSpace=wrap;html=1;" vertex="1" parent="vkFzOL-VumdsYGp-NjrM-14">
          <mxGeometry y="90" width="140" height="30" as="geometry" />
        </mxCell>
        <mxCell id="vkFzOL-VumdsYGp-NjrM-18" value="store_location" style="text;strokeColor=none;fillColor=none;align=left;verticalAlign=middle;spacingLeft=4;spacingRight=4;overflow=hidden;points=[[0,0.5],[1,0.5]];portConstraint=eastwest;rotatable=0;whiteSpace=wrap;html=1;" vertex="1" parent="vkFzOL-VumdsYGp-NjrM-14">
          <mxGeometry y="120" width="140" height="30" as="geometry" />
        </mxCell>
        <mxCell id="vkFzOL-VumdsYGp-NjrM-19" value="address" style="text;strokeColor=none;fillColor=none;align=left;verticalAlign=middle;spacingLeft=4;spacingRight=4;overflow=hidden;points=[[0,0.5],[1,0.5]];portConstraint=eastwest;rotatable=0;whiteSpace=wrap;html=1;" vertex="1" parent="vkFzOL-VumdsYGp-NjrM-14">
          <mxGeometry y="150" width="140" height="30" as="geometry" />
        </mxCell>
        <mxCell id="vkFzOL-VumdsYGp-NjrM-20" value="city" style="text;strokeColor=none;fillColor=none;align=left;verticalAlign=middle;spacingLeft=4;spacingRight=4;overflow=hidden;points=[[0,0.5],[1,0.5]];portConstraint=eastwest;rotatable=0;whiteSpace=wrap;html=1;" vertex="1" parent="vkFzOL-VumdsYGp-NjrM-14">
          <mxGeometry y="180" width="140" height="30" as="geometry" />
        </mxCell>
        <mxCell id="vkFzOL-VumdsYGp-NjrM-21" value="country" style="text;strokeColor=none;fillColor=none;align=left;verticalAlign=middle;spacingLeft=4;spacingRight=4;overflow=hidden;points=[[0,0.5],[1,0.5]];portConstraint=eastwest;rotatable=0;whiteSpace=wrap;html=1;" vertex="1" parent="vkFzOL-VumdsYGp-NjrM-14">
          <mxGeometry y="210" width="140" height="30" as="geometry" />
        </mxCell>
        <mxCell id="vkFzOL-VumdsYGp-NjrM-22" value="zip_code" style="text;strokeColor=none;fillColor=none;align=left;verticalAlign=middle;spacingLeft=4;spacingRight=4;overflow=hidden;points=[[0,0.5],[1,0.5]];portConstraint=eastwest;rotatable=0;whiteSpace=wrap;html=1;" vertex="1" parent="vkFzOL-VumdsYGp-NjrM-14">
          <mxGeometry y="240" width="140" height="30" as="geometry" />
        </mxCell>
        <mxCell id="vkFzOL-VumdsYGp-NjrM-23" value="&lt;b&gt;DIM_Vendor&lt;/b&gt;" style="swimlane;fontStyle=0;childLayout=stackLayout;horizontal=1;startSize=30;horizontalStack=0;resizeParent=1;resizeParentMax=0;resizeLast=0;collapsible=1;marginBottom=0;whiteSpace=wrap;html=1;" vertex="1" parent="1">
          <mxGeometry x="119" y="1539" width="140" height="120" as="geometry" />
        </mxCell>
        <mxCell id="vkFzOL-VumdsYGp-NjrM-24" value="vendor_key" style="text;strokeColor=none;fillColor=none;align=left;verticalAlign=middle;spacingLeft=4;spacingRight=4;overflow=hidden;points=[[0,0.5],[1,0.5]];portConstraint=eastwest;rotatable=0;whiteSpace=wrap;html=1;fontStyle=5" vertex="1" parent="vkFzOL-VumdsYGp-NjrM-23">
          <mxGeometry y="30" width="140" height="30" as="geometry" />
        </mxCell>
        <mxCell id="vkFzOL-VumdsYGp-NjrM-25" value="vendor_name" style="text;strokeColor=none;fillColor=none;align=left;verticalAlign=middle;spacingLeft=4;spacingRight=4;overflow=hidden;points=[[0,0.5],[1,0.5]];portConstraint=eastwest;rotatable=0;whiteSpace=wrap;html=1;" vertex="1" parent="vkFzOL-VumdsYGp-NjrM-23">
          <mxGeometry y="60" width="140" height="30" as="geometry" />
        </mxCell>
        <mxCell id="vkFzOL-VumdsYGp-NjrM-26" value="vendor_number&lt;span style=&quot;white-space: pre;&quot;&gt;&#x9;&lt;/span&gt;" style="text;strokeColor=none;fillColor=none;align=left;verticalAlign=middle;spacingLeft=4;spacingRight=4;overflow=hidden;points=[[0,0.5],[1,0.5]];portConstraint=eastwest;rotatable=0;whiteSpace=wrap;html=1;" vertex="1" parent="vkFzOL-VumdsYGp-NjrM-23">
          <mxGeometry y="90" width="140" height="30" as="geometry" />
        </mxCell>
        <mxCell id="vkFzOL-VumdsYGp-NjrM-27" value="&lt;b&gt;DIM_Time&lt;/b&gt;" style="swimlane;fontStyle=0;childLayout=stackLayout;horizontal=1;startSize=30;horizontalStack=0;resizeParent=1;resizeParentMax=0;resizeLast=0;collapsible=1;marginBottom=0;whiteSpace=wrap;html=1;" vertex="1" parent="1">
          <mxGeometry x="-565" y="1272" width="140" height="180" as="geometry" />
        </mxCell>
        <mxCell id="vkFzOL-VumdsYGp-NjrM-28" value="&lt;b&gt;&lt;u&gt;time_key&lt;/u&gt;&lt;/b&gt;" style="text;strokeColor=none;fillColor=none;align=left;verticalAlign=middle;spacingLeft=4;spacingRight=4;overflow=hidden;points=[[0,0.5],[1,0.5]];portConstraint=eastwest;rotatable=0;whiteSpace=wrap;html=1;" vertex="1" parent="vkFzOL-VumdsYGp-NjrM-27">
          <mxGeometry y="30" width="140" height="30" as="geometry" />
        </mxCell>
        <mxCell id="vkFzOL-VumdsYGp-NjrM-29" value="date" style="text;strokeColor=none;fillColor=none;align=left;verticalAlign=middle;spacingLeft=4;spacingRight=4;overflow=hidden;points=[[0,0.5],[1,0.5]];portConstraint=eastwest;rotatable=0;whiteSpace=wrap;html=1;" vertex="1" parent="vkFzOL-VumdsYGp-NjrM-27">
          <mxGeometry y="60" width="140" height="30" as="geometry" />
        </mxCell>
        <mxCell id="vkFzOL-VumdsYGp-NjrM-30" value="month" style="text;strokeColor=none;fillColor=none;align=left;verticalAlign=middle;spacingLeft=4;spacingRight=4;overflow=hidden;points=[[0,0.5],[1,0.5]];portConstraint=eastwest;rotatable=0;whiteSpace=wrap;html=1;" vertex="1" parent="vkFzOL-VumdsYGp-NjrM-27">
          <mxGeometry y="90" width="140" height="30" as="geometry" />
        </mxCell>
        <mxCell id="vkFzOL-VumdsYGp-NjrM-31" value="quarter" style="text;strokeColor=none;fillColor=none;align=left;verticalAlign=middle;spacingLeft=4;spacingRight=4;overflow=hidden;points=[[0,0.5],[1,0.5]];portConstraint=eastwest;rotatable=0;whiteSpace=wrap;html=1;" vertex="1" parent="vkFzOL-VumdsYGp-NjrM-27">
          <mxGeometry y="120" width="140" height="30" as="geometry" />
        </mxCell>
        <mxCell id="vkFzOL-VumdsYGp-NjrM-32" value="year" style="text;strokeColor=none;fillColor=none;align=left;verticalAlign=middle;spacingLeft=4;spacingRight=4;overflow=hidden;points=[[0,0.5],[1,0.5]];portConstraint=eastwest;rotatable=0;whiteSpace=wrap;html=1;" vertex="1" parent="vkFzOL-VumdsYGp-NjrM-27">
          <mxGeometry y="150" width="140" height="30" as="geometry" />
        </mxCell>
        <mxCell id="vkFzOL-VumdsYGp-NjrM-33" value="&lt;b&gt;DIM_Item&lt;/b&gt;" style="swimlane;fontStyle=0;childLayout=stackLayout;horizontal=1;startSize=30;horizontalStack=0;resizeParent=1;resizeParentMax=0;resizeLast=0;collapsible=1;marginBottom=0;whiteSpace=wrap;html=1;" vertex="1" parent="1">
          <mxGeometry x="122" y="1257" width="140" height="210" as="geometry" />
        </mxCell>
        <mxCell id="vkFzOL-VumdsYGp-NjrM-34" value="item_key" style="text;strokeColor=none;fillColor=none;align=left;verticalAlign=middle;spacingLeft=4;spacingRight=4;overflow=hidden;points=[[0,0.5],[1,0.5]];portConstraint=eastwest;rotatable=0;whiteSpace=wrap;html=1;fontStyle=5" vertex="1" parent="vkFzOL-VumdsYGp-NjrM-33">
          <mxGeometry y="30" width="140" height="30" as="geometry" />
        </mxCell>
        <mxCell id="vkFzOL-VumdsYGp-NjrM-35" value="item_number" style="text;strokeColor=none;fillColor=none;align=left;verticalAlign=middle;spacingLeft=4;spacingRight=4;overflow=hidden;points=[[0,0.5],[1,0.5]];portConstraint=eastwest;rotatable=0;whiteSpace=wrap;html=1;" vertex="1" parent="vkFzOL-VumdsYGp-NjrM-33">
          <mxGeometry y="60" width="140" height="30" as="geometry" />
        </mxCell>
        <mxCell id="vkFzOL-VumdsYGp-NjrM-36" value="item_description" style="text;strokeColor=none;fillColor=none;align=left;verticalAlign=middle;spacingLeft=4;spacingRight=4;overflow=hidden;points=[[0,0.5],[1,0.5]];portConstraint=eastwest;rotatable=0;whiteSpace=wrap;html=1;" vertex="1" parent="vkFzOL-VumdsYGp-NjrM-33">
          <mxGeometry y="90" width="140" height="30" as="geometry" />
        </mxCell>
        <mxCell id="vkFzOL-VumdsYGp-NjrM-37" value="bottle_volume_ml" style="text;strokeColor=none;fillColor=none;align=left;verticalAlign=middle;spacingLeft=4;spacingRight=4;overflow=hidden;points=[[0,0.5],[1,0.5]];portConstraint=eastwest;rotatable=0;whiteSpace=wrap;html=1;" vertex="1" parent="vkFzOL-VumdsYGp-NjrM-33">
          <mxGeometry y="120" width="140" height="30" as="geometry" />
        </mxCell>
        <mxCell id="vkFzOL-VumdsYGp-NjrM-38" value="state_bottle_cost" style="text;strokeColor=none;fillColor=none;align=left;verticalAlign=middle;spacingLeft=4;spacingRight=4;overflow=hidden;points=[[0,0.5],[1,0.5]];portConstraint=eastwest;rotatable=0;whiteSpace=wrap;html=1;" vertex="1" parent="vkFzOL-VumdsYGp-NjrM-33">
          <mxGeometry y="150" width="140" height="30" as="geometry" />
        </mxCell>
        <mxCell id="vkFzOL-VumdsYGp-NjrM-39" value="state_bottle_retail" style="text;strokeColor=none;fillColor=none;align=left;verticalAlign=middle;spacingLeft=4;spacingRight=4;overflow=hidden;points=[[0,0.5],[1,0.5]];portConstraint=eastwest;rotatable=0;whiteSpace=wrap;html=1;" vertex="1" parent="vkFzOL-VumdsYGp-NjrM-33">
          <mxGeometry y="180" width="140" height="30" as="geometry" />
        </mxCell>
        <mxCell id="vkFzOL-VumdsYGp-NjrM-40" value="&lt;b&gt;FACT_Sale&lt;/b&gt;" style="swimlane;fontStyle=0;childLayout=stackLayout;horizontal=1;startSize=30;horizontalStack=0;resizeParent=1;resizeParentMax=0;resizeLast=0;collapsible=1;marginBottom=0;whiteSpace=wrap;html=1;fillColor=#f8cecc;strokeColor=#b85450;" vertex="1" parent="1">
          <mxGeometry x="-263" y="1182" width="239" height="300" as="geometry">
            <mxRectangle x="310" y="177" width="54" height="30" as="alternateBounds" />
          </mxGeometry>
        </mxCell>
        <mxCell id="vkFzOL-VumdsYGp-NjrM-41" value="&lt;u&gt;invoice and item_key&lt;/u&gt;" style="text;strokeColor=none;fillColor=none;align=left;verticalAlign=middle;spacingLeft=4;spacingRight=4;overflow=hidden;points=[[0,0.5],[1,0.5]];portConstraint=eastwest;rotatable=0;whiteSpace=wrap;html=1;" vertex="1" parent="vkFzOL-VumdsYGp-NjrM-40">
          <mxGeometry y="30" width="239" height="30" as="geometry" />
        </mxCell>
        <mxCell id="vkFzOL-VumdsYGp-NjrM-42" value="&lt;u&gt;store_key&lt;/u&gt;" style="text;strokeColor=none;fillColor=none;align=left;verticalAlign=middle;spacingLeft=4;spacingRight=4;overflow=hidden;points=[[0,0.5],[1,0.5]];portConstraint=eastwest;rotatable=0;whiteSpace=wrap;html=1;" vertex="1" parent="vkFzOL-VumdsYGp-NjrM-40">
          <mxGeometry y="60" width="239" height="30" as="geometry" />
        </mxCell>
        <mxCell id="vkFzOL-VumdsYGp-NjrM-43" value="&lt;u&gt;category_key&lt;/u&gt;" style="text;strokeColor=none;fillColor=none;align=left;verticalAlign=middle;spacingLeft=4;spacingRight=4;overflow=hidden;points=[[0,0.5],[1,0.5]];portConstraint=eastwest;rotatable=0;whiteSpace=wrap;html=1;" vertex="1" parent="vkFzOL-VumdsYGp-NjrM-40">
          <mxGeometry y="90" width="239" height="30" as="geometry" />
        </mxCell>
        <mxCell id="vkFzOL-VumdsYGp-NjrM-44" value="&lt;u&gt;item_key&lt;/u&gt;" style="text;strokeColor=none;fillColor=none;align=left;verticalAlign=middle;spacingLeft=4;spacingRight=4;overflow=hidden;points=[[0,0.5],[1,0.5]];portConstraint=eastwest;rotatable=0;whiteSpace=wrap;html=1;" vertex="1" parent="vkFzOL-VumdsYGp-NjrM-40">
          <mxGeometry y="120" width="239" height="30" as="geometry" />
        </mxCell>
        <mxCell id="vkFzOL-VumdsYGp-NjrM-45" value="&lt;u&gt;vendor_key&lt;/u&gt;" style="text;strokeColor=none;fillColor=none;align=left;verticalAlign=middle;spacingLeft=4;spacingRight=4;overflow=hidden;points=[[0,0.5],[1,0.5]];portConstraint=eastwest;rotatable=0;whiteSpace=wrap;html=1;" vertex="1" parent="vkFzOL-VumdsYGp-NjrM-40">
          <mxGeometry y="150" width="239" height="30" as="geometry" />
        </mxCell>
        <mxCell id="vkFzOL-VumdsYGp-NjrM-46" value="&lt;u style=&quot;&quot;&gt;time_key&lt;/u&gt;" style="text;strokeColor=none;fillColor=none;align=left;verticalAlign=middle;spacingLeft=4;spacingRight=4;overflow=hidden;points=[[0,0.5],[1,0.5]];portConstraint=eastwest;rotatable=0;whiteSpace=wrap;html=1;" vertex="1" parent="vkFzOL-VumdsYGp-NjrM-40">
          <mxGeometry y="180" width="239" height="30" as="geometry" />
        </mxCell>
        <mxCell id="vkFzOL-VumdsYGp-NjrM-47" value="revenue" style="text;strokeColor=none;fillColor=none;align=left;verticalAlign=middle;spacingLeft=4;spacingRight=4;overflow=hidden;points=[[0,0.5],[1,0.5]];portConstraint=eastwest;rotatable=0;whiteSpace=wrap;html=1;" vertex="1" parent="vkFzOL-VumdsYGp-NjrM-40">
          <mxGeometry y="210" width="239" height="30" as="geometry" />
        </mxCell>
        <mxCell id="vkFzOL-VumdsYGp-NjrM-48" value="profit" style="text;strokeColor=none;fillColor=none;align=left;verticalAlign=middle;spacingLeft=4;spacingRight=4;overflow=hidden;points=[[0,0.5],[1,0.5]];portConstraint=eastwest;rotatable=0;whiteSpace=wrap;html=1;" vertex="1" parent="vkFzOL-VumdsYGp-NjrM-40">
          <mxGeometry y="240" width="239" height="30" as="geometry" />
        </mxCell>
        <mxCell id="vkFzOL-VumdsYGp-NjrM-49" value="cost" style="text;strokeColor=none;fillColor=none;align=left;verticalAlign=middle;spacingLeft=4;spacingRight=4;overflow=hidden;points=[[0,0.5],[1,0.5]];portConstraint=eastwest;rotatable=0;whiteSpace=wrap;html=1;" vertex="1" parent="vkFzOL-VumdsYGp-NjrM-40">
          <mxGeometry y="270" width="239" height="30" as="geometry" />
        </mxCell>
        <mxCell id="vkFzOL-VumdsYGp-NjrM-50" style="rounded=0;orthogonalLoop=1;jettySize=auto;html=1;exitX=1;exitY=0.5;exitDx=0;exitDy=0;startArrow=ERone;startFill=0;endArrow=ERoneToMany;endFill=0;" edge="1" parent="vkFzOL-VumdsYGp-NjrM-40" source="vkFzOL-VumdsYGp-NjrM-46" target="vkFzOL-VumdsYGp-NjrM-46">
          <mxGeometry relative="1" as="geometry" />
        </mxCell>
        <mxCell id="vkFzOL-VumdsYGp-NjrM-58" value="&lt;b&gt;FACT_Amount&lt;/b&gt;" style="swimlane;fontStyle=0;childLayout=stackLayout;horizontal=1;startSize=30;horizontalStack=0;resizeParent=1;resizeParentMax=0;resizeLast=0;collapsible=1;marginBottom=0;whiteSpace=wrap;html=1;fillColor=#f8cecc;strokeColor=#b85450;" vertex="1" parent="1">
          <mxGeometry x="-996" y="1123" width="239" height="210" as="geometry">
            <mxRectangle x="310" y="177" width="54" height="30" as="alternateBounds" />
          </mxGeometry>
        </mxCell>
        <mxCell id="vkFzOL-VumdsYGp-NjrM-59" value="&lt;u&gt;invoice and item_key&lt;/u&gt;" style="text;strokeColor=none;fillColor=none;align=left;verticalAlign=middle;spacingLeft=4;spacingRight=4;overflow=hidden;points=[[0,0.5],[1,0.5]];portConstraint=eastwest;rotatable=0;whiteSpace=wrap;html=1;" vertex="1" parent="vkFzOL-VumdsYGp-NjrM-58">
          <mxGeometry y="30" width="239" height="30" as="geometry" />
        </mxCell>
        <mxCell id="vkFzOL-VumdsYGp-NjrM-61" value="&lt;u&gt;time_key&lt;/u&gt;" style="text;strokeColor=none;fillColor=none;align=left;verticalAlign=middle;spacingLeft=4;spacingRight=4;overflow=hidden;points=[[0,0.5],[1,0.5]];portConstraint=eastwest;rotatable=0;whiteSpace=wrap;html=1;" vertex="1" parent="vkFzOL-VumdsYGp-NjrM-58">
          <mxGeometry y="60" width="239" height="30" as="geometry" />
        </mxCell>
        <mxCell id="vkFzOL-VumdsYGp-NjrM-60" value="&lt;u&gt;store_key&lt;/u&gt;" style="text;strokeColor=none;fillColor=none;align=left;verticalAlign=middle;spacingLeft=4;spacingRight=4;overflow=hidden;points=[[0,0.5],[1,0.5]];portConstraint=eastwest;rotatable=0;whiteSpace=wrap;html=1;" vertex="1" parent="vkFzOL-VumdsYGp-NjrM-58">
          <mxGeometry y="90" width="239" height="30" as="geometry" />
        </mxCell>
        <mxCell id="vkFzOL-VumdsYGp-NjrM-62" value="total_bottles_sold" style="text;strokeColor=none;fillColor=none;align=left;verticalAlign=middle;spacingLeft=4;spacingRight=4;overflow=hidden;points=[[0,0.5],[1,0.5]];portConstraint=eastwest;rotatable=0;whiteSpace=wrap;html=1;" vertex="1" parent="vkFzOL-VumdsYGp-NjrM-58">
          <mxGeometry y="120" width="239" height="30" as="geometry" />
        </mxCell>
        <mxCell id="vkFzOL-VumdsYGp-NjrM-63" value="total_volume_sold_in_liters" style="text;strokeColor=none;fillColor=none;align=left;verticalAlign=middle;spacingLeft=4;spacingRight=4;overflow=hidden;points=[[0,0.5],[1,0.5]];portConstraint=eastwest;rotatable=0;whiteSpace=wrap;html=1;" vertex="1" parent="vkFzOL-VumdsYGp-NjrM-58">
          <mxGeometry y="150" width="239" height="30" as="geometry" />
        </mxCell>
        <mxCell id="vkFzOL-VumdsYGp-NjrM-64" value="total_volume_sold_in_gallons" style="text;strokeColor=none;fillColor=none;align=left;verticalAlign=middle;spacingLeft=4;spacingRight=4;overflow=hidden;points=[[0,0.5],[1,0.5]];portConstraint=eastwest;rotatable=0;whiteSpace=wrap;html=1;" vertex="1" parent="vkFzOL-VumdsYGp-NjrM-58">
          <mxGeometry y="180" width="239" height="30" as="geometry" />
        </mxCell>
        <mxCell id="vkFzOL-VumdsYGp-NjrM-69" style="rounded=0;orthogonalLoop=1;jettySize=auto;html=1;exitX=1;exitY=0.5;exitDx=0;exitDy=0;entryX=0;entryY=0.5;entryDx=0;entryDy=0;endArrow=ERoneToMany;endFill=0;startArrow=ERone;startFill=0;" edge="1" parent="1" source="vkFzOL-VumdsYGp-NjrM-59" target="vkFzOL-VumdsYGp-NjrM-3">
          <mxGeometry relative="1" as="geometry" />
        </mxCell>
        <mxCell id="vkFzOL-VumdsYGp-NjrM-70" style="rounded=0;orthogonalLoop=1;jettySize=auto;html=1;exitX=1;exitY=0.5;exitDx=0;exitDy=0;entryX=0;entryY=0.5;entryDx=0;entryDy=0;endArrow=ERoneToMany;endFill=0;startArrow=ERone;startFill=0;" edge="1" parent="1" source="vkFzOL-VumdsYGp-NjrM-61" target="vkFzOL-VumdsYGp-NjrM-28">
          <mxGeometry relative="1" as="geometry" />
        </mxCell>
        <mxCell id="vkFzOL-VumdsYGp-NjrM-73" style="rounded=0;orthogonalLoop=1;jettySize=auto;html=1;exitX=1;exitY=0.5;exitDx=0;exitDy=0;entryX=0;entryY=0.5;entryDx=0;entryDy=0;startArrow=ERone;startFill=0;endArrow=ERoneToMany;endFill=0;" edge="1" parent="1" source="vkFzOL-VumdsYGp-NjrM-43" target="vkFzOL-VumdsYGp-NjrM-10">
          <mxGeometry relative="1" as="geometry" />
        </mxCell>
        <mxCell id="vkFzOL-VumdsYGp-NjrM-74" style="rounded=0;orthogonalLoop=1;jettySize=auto;html=1;exitX=1;exitY=0.5;exitDx=0;exitDy=0;entryX=0;entryY=0.5;entryDx=0;entryDy=0;startArrow=ERone;startFill=0;endArrow=ERoneToMany;endFill=0;" edge="1" parent="1" source="vkFzOL-VumdsYGp-NjrM-44" target="vkFzOL-VumdsYGp-NjrM-34">
          <mxGeometry relative="1" as="geometry" />
        </mxCell>
        <mxCell id="vkFzOL-VumdsYGp-NjrM-75" style="rounded=0;orthogonalLoop=1;jettySize=auto;html=1;exitX=1;exitY=0.5;exitDx=0;exitDy=0;entryX=0;entryY=0.5;entryDx=0;entryDy=0;startArrow=ERone;startFill=0;endArrow=ERoneToMany;endFill=0;" edge="1" parent="1" source="vkFzOL-VumdsYGp-NjrM-45" target="vkFzOL-VumdsYGp-NjrM-24">
          <mxGeometry relative="1" as="geometry" />
        </mxCell>
        <mxCell id="vkFzOL-VumdsYGp-NjrM-76" style="rounded=0;orthogonalLoop=1;jettySize=auto;html=1;exitX=0;exitY=0.5;exitDx=0;exitDy=0;entryX=1;entryY=0.5;entryDx=0;entryDy=0;startArrow=ERone;startFill=0;endArrow=ERoneToMany;endFill=0;" edge="1" parent="1" source="vkFzOL-VumdsYGp-NjrM-46" target="vkFzOL-VumdsYGp-NjrM-28">
          <mxGeometry relative="1" as="geometry" />
        </mxCell>
        <mxCell id="vkFzOL-VumdsYGp-NjrM-77" style="rounded=0;orthogonalLoop=1;jettySize=auto;html=1;exitX=0;exitY=0.5;exitDx=0;exitDy=0;entryX=1;entryY=0.5;entryDx=0;entryDy=0;startArrow=ERone;startFill=0;endArrow=ERoneToMany;endFill=0;" edge="1" parent="1" source="vkFzOL-VumdsYGp-NjrM-41" target="vkFzOL-VumdsYGp-NjrM-3">
          <mxGeometry relative="1" as="geometry" />
        </mxCell>
        <mxCell id="vkFzOL-VumdsYGp-NjrM-78" style="edgeStyle=orthogonalEdgeStyle;rounded=0;orthogonalLoop=1;jettySize=auto;html=1;exitX=0;exitY=0.5;exitDx=0;exitDy=0;entryX=0;entryY=0.5;entryDx=0;entryDy=0;startArrow=ERone;startFill=0;endArrow=ERoneToMany;endFill=0;curved=1;" edge="1" parent="1" source="vkFzOL-VumdsYGp-NjrM-42" target="vkFzOL-VumdsYGp-NjrM-15">
          <mxGeometry relative="1" as="geometry">
            <Array as="points">
              <mxPoint x="-337" y="1257" />
              <mxPoint x="-337" y="1569" />
            </Array>
          </mxGeometry>
        </mxCell>
        <mxCell id="vkFzOL-VumdsYGp-NjrM-80" style="edgeStyle=orthogonalEdgeStyle;rounded=0;orthogonalLoop=1;jettySize=auto;html=1;exitX=1;exitY=0.5;exitDx=0;exitDy=0;entryX=0;entryY=0.5;entryDx=0;entryDy=0;" edge="1" parent="1" source="vkFzOL-VumdsYGp-NjrM-60" target="vkFzOL-VumdsYGp-NjrM-16">
          <mxGeometry relative="1" as="geometry">
            <Array as="points">
              <mxPoint x="-724" y="1228" />
              <mxPoint x="-724" y="1599" />
            </Array>
          </mxGeometry>
        </mxCell>
      </root>
    </mxGraphModel>
  </diagram>
</mxfile>
